<?xml version="1.0" standalone="no"?>
<!DOCTYPE svg PUBLIC "-//W3C//DTD SVG 20010904//EN"
 "http://www.w3.org/TR/2001/REC-SVG-20010904/DTD/svg10.dtd">
<svg version="1.0" xmlns="http://www.w3.org/2000/svg"
 width="700.000000pt" height="794.000000pt" viewBox="0 0 700.000000 794.000000"
 preserveAspectRatio="xMidYMid meet">

<g transform="translate(50,794.000000) scale(0.100000,-0.100000)"
fill="#000000" stroke="none">
<path d="M770 7662 c-42 -15 -96 -40 -121 -54 -63 -37 -153 -137 -190 -210
-32 -63 -60 -174 -58 -230 1 -18 -3 -67 -8 -108 -4 -41 -6 -1517 -3 -3280 l5
-3205 33 -67 c55 -111 161 -204 277 -244 67 -24 228 -24 307 -1 174 52 370
248 447 446 l26 66 5 590 c5 581 6 591 29 673 20 72 29 87 69 122 24 22 53 40
63 40 10 0 21 5 24 10 3 6 16 10 29 10 12 0 26 4 32 10 6 6 329 11 884 13
1000 5 969 2 1141 87 91 45 190 120 273 210 233 249 337 323 516 363 86 19
341 9 356 -14 3 -5 14 -9 25 -9 10 0 27 -4 37 -9 9 -5 40 -19 67 -32 163 -76
325 -240 401 -405 49 -108 65 -174 71 -304 5 -99 -4 -159 -39 -270 -60 -190
-189 -354 -309 -394 -137 -45 -166 -46 -1280 -46 -1173 0 -1103 4 -1216 -69
-114 -73 -316 -299 -373 -416 -65 -133 -61 -267 13 -409 69 -134 177 -231 291
-260 60 -15 2113 -14 2226 1 233 32 391 76 575 162 188 88 508 288 660 412
237 193 462 498 564 764 12 33 27 68 32 77 5 10 9 27 9 37 0 11 4 22 9 25 5 3
11 20 14 38 3 18 11 53 17 78 59 234 59 586 0 820 -6 25 -14 60 -17 78 -3 18
-9 35 -14 38 -5 3 -9 16 -9 29 0 13 -4 27 -10 30 -5 3 -10 13 -10 22 0 29
-117 278 -169 358 -191 296 -428 523 -688 658 -35 17 -63 37 -63 42 0 6 17 22
38 36 66 47 383 329 487 434 213 214 371 470 463 750 64 199 77 293 77 580 0
249 -8 335 -42 465 -8 30 -18 69 -23 85 -13 51 -40 128 -61 172 -10 24 -19 47
-19 52 0 8 -59 125 -99 195 -116 202 -340 453 -534 595 -158 116 -356 218
-552 284 -139 46 -178 56 -360 89 -41 7 -726 11 -2155 14 l-2095 3 -75 -27z
m3940 -1282 c160 -25 276 -68 401 -151 187 -125 335 -337 382 -549 14 -66 20
-331 8 -343 -6 -6 -11 -22 -11 -36 0 -25 -16 -83 -31 -113 -5 -10 -9 -22 -9
-28 0 -18 -48 -115 -78 -156 -21 -28 -50 -51 -95 -72 -36 -18 -73 -32 -81 -32
-8 0 -17 -4 -20 -9 -14 -21 -223 -40 -336 -30 -90 8 -132 15 -165 29 -11 4
-36 14 -55 21 -80 29 -189 117 -355 285 -226 228 -324 293 -545 356 -102 29
-165 31 -980 38 -465 3 -858 10 -875 14 -64 16 -123 45 -175 85 -89 68 -144
153 -174 268 -19 72 -22 260 -5 297 19 41 119 98 214 122 64 15 2883 19 2985
4z m-1440 -2087 c47 -23 102 -56 123 -73 33 -28 117 -139 117 -155 0 -3 9 -24
19 -48 26 -57 35 -108 34 -192 0 -73 -8 -125 -24 -162 -34 -84 -47 -95 -136
-125 -52 -17 -103 -18 -787 -18 l-731 0 -69 25 c-136 49 -209 114 -271 240
-46 91 -58 165 -53 300 7 145 18 167 106 208 37 17 87 34 112 38 25 4 367 6
760 5 l715 -1 85 -42z"/>
</g>
</svg>
